<svg xmlns="http://www.w3.org/2000/svg" width="1280" height="820" viewBox="0 0 1280 820" role="img" aria-labelledby="title desc">
  <title id="title">The Novelist narrative canvas preview</title>
  <desc id="desc">A stylized preview of the app canvas with connected chapter and plot nodes.</desc>
  <defs>
    <filter id="shadow" x="-10%" y="-10%" width="120%" height="120%">
      <feDropShadow dx="0" dy="15" stdDeviation="14" flood-color="#10202a" flood-opacity=".18"/>
    </filter>
  </defs>
  <rect width="1280" height="820" fill="#eef3f5"/>
  <rect x="70" y="64" width="1140" height="692" rx="28" fill="#fbfcfb" filter="url(#shadow)"/>
  <rect x="70" y="64" width="1140" height="74" rx="28" fill="#1f2933"/>
  <text x="108" y="110" font-family="Inter, Arial, sans-serif" font-size="26" font-weight="800" fill="#ffffff">Canvas capitoli</text>
  <rect x="950" y="88" width="96" height="28" rx="14" fill="#2f6f73"/>
  <text x="970" y="108" font-family="Inter, Arial, sans-serif" font-size="14" font-weight="700" fill="#ffffff">Trama A</text>
  <rect x="1060" y="88" width="96" height="28" rx="14" fill="#7d5a2f"/>
  <text x="1080" y="108" font-family="Inter, Arial, sans-serif" font-size="14" font-weight="700" fill="#ffffff">Trama B</text>
  <g stroke="#c4d1d6" stroke-width="2">
    <path d="M180 180 H1145"/>
    <path d="M180 260 H1145"/>
    <path d="M180 340 H1145"/>
    <path d="M180 420 H1145"/>
    <path d="M180 500 H1145"/>
    <path d="M180 580 H1145"/>
    <path d="M260 160 V690"/>
    <path d="M420 160 V690"/>
    <path d="M580 160 V690"/>
    <path d="M740 160 V690"/>
    <path d="M900 160 V690"/>
    <path d="M1060 160 V690"/>
  </g>
  <g fill="none" stroke-width="5" stroke-linecap="round" stroke-linejoin="round">
    <path d="M244 306 C340 240 396 247 492 300 S680 385 790 300 S955 220 1046 286" stroke="#2f6f73"/>
    <path d="M250 505 C360 580 473 550 570 490 S736 398 854 463 S977 575 1070 526" stroke="#7d5a2f"/>
  </g>
  <g font-family="Inter, Arial, sans-serif">
    <g filter="url(#shadow)">
      <rect x="154" y="245" width="180" height="110" rx="16" fill="#ffffff" stroke="#2f6f73" stroke-width="3"/>
      <text x="177" y="283" font-size="20" font-weight="800" fill="#1f2933">Capitolo 1</text>
      <text x="177" y="314" font-size="15" fill="#61717b">L'arrivo</text>
    </g>
    <g filter="url(#shadow)">
      <rect x="403" y="250" width="180" height="110" rx="16" fill="#ffffff" stroke="#2f6f73" stroke-width="3"/>
      <text x="426" y="288" font-size="20" font-weight="800" fill="#1f2933">Capitolo 4</text>
      <text x="426" y="319" font-size="15" fill="#61717b">Il patto</text>
    </g>
    <g filter="url(#shadow)">
      <rect x="700" y="245" width="180" height="110" rx="16" fill="#ffffff" stroke="#2f6f73" stroke-width="3"/>
      <text x="723" y="283" font-size="20" font-weight="800" fill="#1f2933">Capitolo 8</text>
      <text x="723" y="314" font-size="15" fill="#61717b">La svolta</text>
    </g>
    <g filter="url(#shadow)">
      <rect x="959" y="236" width="180" height="110" rx="16" fill="#ffffff" stroke="#2f6f73" stroke-width="3"/>
      <text x="982" y="274" font-size="20" font-weight="800" fill="#1f2933">Capitolo 12</text>
      <text x="982" y="305" font-size="15" fill="#61717b">Rivelazione</text>
    </g>
    <g filter="url(#shadow)">
      <rect x="160" y="455" width="180" height="110" rx="16" fill="#ffffff" stroke="#7d5a2f" stroke-width="3"/>
      <text x="183" y="493" font-size="20" font-weight="800" fill="#1f2933">Scena 3</text>
      <text x="183" y="524" font-size="15" fill="#61717b">Indizio</text>
    </g>
    <g filter="url(#shadow)">
      <rect x="480" y="430" width="180" height="110" rx="16" fill="#ffffff" stroke="#7d5a2f" stroke-width="3"/>
      <text x="503" y="468" font-size="20" font-weight="800" fill="#1f2933">Scena 9</text>
      <text x="503" y="499" font-size="15" fill="#61717b">Conflitto</text>
    </g>
    <g filter="url(#shadow)">
      <rect x="770" y="415" width="180" height="110" rx="16" fill="#ffffff" stroke="#7d5a2f" stroke-width="3"/>
      <text x="793" y="453" font-size="20" font-weight="800" fill="#1f2933">Scena 14</text>
      <text x="793" y="484" font-size="15" fill="#61717b">Fuga</text>
    </g>
    <g filter="url(#shadow)">
      <rect x="980" y="470" width="180" height="110" rx="16" fill="#ffffff" stroke="#7d5a2f" stroke-width="3"/>
      <text x="1003" y="508" font-size="20" font-weight="800" fill="#1f2933">Scena 18</text>
      <text x="1003" y="539" font-size="15" fill="#61717b">Conseguenza</text>
    </g>
  </g>
</svg>
