<svg xmlns="http://www.w3.org/2000/svg" width="1280" height="820" viewBox="0 0 1280 820" role="img" aria-labelledby="title desc">
  <title id="title">The Novelist dashboard preview</title>
  <desc id="desc">A stylized preview of the project dashboard with metrics, status, checks, and writing progress.</desc>
  <defs>
    <filter id="shadow" x="-10%" y="-10%" width="120%" height="120%">
      <feDropShadow dx="0" dy="18" stdDeviation="18" flood-color="#0b1720" flood-opacity=".18"/>
    </filter>
  </defs>
  <rect width="1280" height="820" fill="#eef3f5"/>
  <rect x="64" y="58" width="1152" height="704" rx="28" fill="#fbfcfb" filter="url(#shadow)"/>
  <rect x="64" y="58" width="238" height="704" rx="28" fill="#1f2933"/>
  <rect x="91" y="91" width="48" height="48" rx="12" fill="#f2b56b"/>
  <text x="155" y="122" font-family="Inter, Arial, sans-serif" font-size="26" font-weight="700" fill="#ffffff">The Novelist</text>
  <text x="91" y="188" font-family="Inter, Arial, sans-serif" font-size="15" fill="#a9b8c1">WORKSPACE</text>
  <g font-family="Inter, Arial, sans-serif" font-size="18" font-weight="600">
    <rect x="88" y="216" width="186" height="43" rx="10" fill="#2f6f73"/>
    <text x="111" y="244" fill="#ffffff">Cruscotto</text>
    <text x="111" y="304" fill="#d7e2e5">Capitoli</text>
    <text x="111" y="360" fill="#d7e2e5">Scene</text>
    <text x="111" y="416" fill="#d7e2e5">Personaggi</text>
    <text x="111" y="472" fill="#d7e2e5">Analisi</text>
  </g>
  <text x="340" y="132" font-family="Inter, Arial, sans-serif" font-size="42" font-weight="800" fill="#1f2933">Il Cartografo delle Ombre</text>
  <text x="340" y="168" font-family="Inter, Arial, sans-serif" font-size="18" fill="#61717b">Dashboard progetto - 52.480 parole - 18 capitoli - lingua: Italiano</text>
  <rect x="340" y="212" width="236" height="138" rx="16" fill="#ffffff" stroke="#d9e2e5"/>
  <rect x="602" y="212" width="236" height="138" rx="16" fill="#ffffff" stroke="#d9e2e5"/>
  <rect x="864" y="212" width="236" height="138" rx="16" fill="#ffffff" stroke="#d9e2e5"/>
  <text x="365" y="253" font-family="Inter, Arial, sans-serif" font-size="16" fill="#61717b">Avanzamento</text>
  <text x="365" y="303" font-family="Inter, Arial, sans-serif" font-size="46" font-weight="800" fill="#2f6f73">62%</text>
  <text x="627" y="253" font-family="Inter, Arial, sans-serif" font-size="16" fill="#61717b">Sessioni</text>
  <text x="627" y="303" font-family="Inter, Arial, sans-serif" font-size="46" font-weight="800" fill="#7d5a2f">34</text>
  <text x="889" y="253" font-family="Inter, Arial, sans-serif" font-size="16" fill="#61717b">AI</text>
  <text x="889" y="303" font-family="Inter, Arial, sans-serif" font-size="34" font-weight="800" fill="#38507a">Locale</text>
  <rect x="340" y="383" width="506" height="274" rx="16" fill="#ffffff" stroke="#d9e2e5"/>
  <text x="365" y="424" font-family="Inter, Arial, sans-serif" font-size="24" font-weight="700" fill="#1f2933">Parole per capitolo</text>
  <g fill="#2f6f73">
    <rect x="365" y="585" width="24" height="34" rx="5"/>
    <rect x="410" y="540" width="24" height="79" rx="5"/>
    <rect x="455" y="500" width="24" height="119" rx="5"/>
    <rect x="500" y="524" width="24" height="95" rx="5"/>
    <rect x="545" y="470" width="24" height="149" rx="5"/>
    <rect x="590" y="438" width="24" height="181" rx="5"/>
    <rect x="635" y="492" width="24" height="127" rx="5"/>
    <rect x="680" y="455" width="24" height="164" rx="5"/>
    <rect x="725" y="514" width="24" height="105" rx="5"/>
    <rect x="770" y="482" width="24" height="137" rx="5"/>
  </g>
  <rect x="875" y="383" width="268" height="274" rx="16" fill="#ffffff" stroke="#d9e2e5"/>
  <text x="900" y="424" font-family="Inter, Arial, sans-serif" font-size="24" font-weight="700" fill="#1f2933">Controlli</text>
  <g font-family="Inter, Arial, sans-serif" font-size="17" fill="#34424b">
    <circle cx="910" cy="476" r="8" fill="#3f8d69"/><text x="930" y="482">Trame collegate</text>
    <circle cx="910" cy="524" r="8" fill="#f2b56b"/><text x="930" y="530">3 scene da completare</text>
    <circle cx="910" cy="572" r="8" fill="#3f8d69"/><text x="930" y="578">Wiki aggiornata</text>
    <circle cx="910" cy="620" r="8" fill="#b85c5c"/><text x="930" y="626">1 capitolo senza note</text>
  </g>
</svg>
