<svg xmlns="http://www.w3.org/2000/svg" width="1280" height="820" viewBox="0 0 1280 820" role="img" aria-labelledby="title desc">
  <title id="title">The Novelist editor preview</title>
  <desc id="desc">A stylized preview of the chapter editor with rich text, notes, references, and AI tools.</desc>
  <defs>
    <filter id="shadow" x="-10%" y="-10%" width="120%" height="120%">
      <feDropShadow dx="0" dy="18" stdDeviation="18" flood-color="#0b1720" flood-opacity=".18"/>
    </filter>
  </defs>
  <rect width="1280" height="820" fill="#eef3f5"/>
  <rect x="68" y="60" width="1144" height="704" rx="28" fill="#fbfcfb" filter="url(#shadow)"/>
  <rect x="68" y="60" width="1144" height="72" rx="28" fill="#1f2933"/>
  <text x="108" y="106" font-family="Inter, Arial, sans-serif" font-size="26" font-weight="800" fill="#ffffff">Editor capitolo</text>
  <g font-family="Inter, Arial, sans-serif" font-size="15" font-weight="700" fill="#ffffff">
    <rect x="846" y="84" width="52" height="28" rx="8" fill="#34424b"/><text x="865" y="104">B</text>
    <rect x="908" y="84" width="52" height="28" rx="8" fill="#34424b"/><text x="929" y="104">I</text>
    <rect x="970" y="84" width="84" height="28" rx="8" fill="#2f6f73"/><text x="992" y="104">Salva</text>
    <rect x="1066" y="84" width="84" height="28" rx="8" fill="#7d5a2f"/><text x="1086" y="104">Export</text>
  </g>
  <rect x="108" y="172" width="700" height="520" rx="18" fill="#ffffff" stroke="#d9e2e5"/>
  <text x="145" y="230" font-family="Georgia, serif" font-size="40" font-weight="700" fill="#1f2933">Capitolo 7 - La camera chiusa</text>
  <rect x="145" y="265" width="590" height="11" rx="5" fill="#d7e2e5"/>
  <rect x="145" y="298" width="620" height="11" rx="5" fill="#d7e2e5"/>
  <rect x="145" y="331" width="540" height="11" rx="5" fill="#d7e2e5"/>
  <rect x="145" y="390" width="630" height="11" rx="5" fill="#d7e2e5"/>
  <rect x="145" y="423" width="604" height="11" rx="5" fill="#d7e2e5"/>
  <rect x="145" y="456" width="420" height="11" rx="5" fill="#d7e2e5"/>
  <rect x="145" y="520" width="92" height="28" rx="14" fill="#e4f1ee"/>
  <text x="160" y="540" font-family="Inter, Arial, sans-serif" font-size="14" font-weight="700" fill="#2f6f73">@Marta</text>
  <rect x="250" y="520" width="126" height="28" rx="14" fill="#eef0f5"/>
  <text x="265" y="540" font-family="Inter, Arial, sans-serif" font-size="14" font-weight="700" fill="#38507a">#Scena-12</text>
  <rect x="145" y="595" width="560" height="11" rx="5" fill="#d7e2e5"/>
  <rect x="145" y="628" width="480" height="11" rx="5" fill="#d7e2e5"/>
  <rect x="842" y="172" width="308" height="178" rx="18" fill="#ffffff" stroke="#d9e2e5"/>
  <text x="868" y="213" font-family="Inter, Arial, sans-serif" font-size="24" font-weight="800" fill="#1f2933">Riferimenti</text>
  <text x="868" y="256" font-family="Inter, Arial, sans-serif" font-size="17" fill="#61717b">2 personaggi collegati</text>
  <text x="868" y="292" font-family="Inter, Arial, sans-serif" font-size="17" fill="#61717b">1 location attiva</text>
  <text x="868" y="328" font-family="Inter, Arial, sans-serif" font-size="17" fill="#61717b">3 scene richiamate</text>
  <rect x="842" y="382" width="308" height="136" rx="18" fill="#ffffff" stroke="#d9e2e5"/>
  <text x="868" y="423" font-family="Inter, Arial, sans-serif" font-size="24" font-weight="800" fill="#1f2933">Analisi AI</text>
  <rect x="868" y="455" width="210" height="34" rx="17" fill="#2f6f73"/>
  <text x="892" y="478" font-family="Inter, Arial, sans-serif" font-size="15" font-weight="800" fill="#ffffff">Controlla coerenza</text>
  <rect x="842" y="550" width="308" height="142" rx="18" fill="#ffffff" stroke="#d9e2e5"/>
  <text x="868" y="591" font-family="Inter, Arial, sans-serif" font-size="24" font-weight="800" fill="#1f2933">Stato</text>
  <text x="868" y="634" font-family="Inter, Arial, sans-serif" font-size="17" fill="#61717b">Preferenze utente salvate</text>
  <text x="868" y="666" font-family="Inter, Arial, sans-serif" font-size="17" fill="#61717b">Autosave pronto</text>
</svg>
